# xmcd
#
# Track frame offsets: 
#        150
#        14074
#        30004
#        51717
#        73262
#        99082
#        115441
#        128522
#        148726
#        168485
#        184324
#
# Disc length: 2918 seconds
#
# Revision: 0
# Processed by: cddbd v1.5.2PL0 Copyright (c) Steve Scherf et al.
# Submitted via: ExactAudioCopy v1.0b4
#
DISCID=9d0b640b
DTITLE=Mitch Kashmar - West Coast Toast
DYEAR=2016
DGENRE=Blues
TTITLE0=East Of 82nd Street
TTITLE1=Too Many Cooks
TTITLE2=Young Girl
TTITLE3=The Petroleum Blues
TTITLE4=Mood Indica
TTITLE5=Don't Stay Out All Night
TTITLE6=My Lil' Stumptown Shack
TTITLE7=Makin' Bacon
TTITLE8=Alcohol Blues
TTITLE9=Love Grows Cold
TTITLE10=Canoodlin'
EXTD=
EXTT0=
EXTT1=
EXTT2=
EXTT3=
EXTT4=
EXTT5=
EXTT6=
EXTT7=
EXTT8=
EXTT9=
EXTT10=
PLAYORDER=
